<svg width="174" height="42" viewBox="0 0 174 42" fill="none" xmlns="http://www.w3.org/2000/svg">
<path fill-rule="evenodd" clip-rule="evenodd" d="M32.884 2.45871C33.4882 2.15906 34.8061 1.61199 35.6222 1.33501C36.2797 1.11224 37.1688 0.796816 37.4734 0.926929C37.6074 0.9841 38.0195 1.17927 37.8539 2.68542C37.8539 2.68542 37.7997 3.93333 37.504 4.19454C37.2634 4.40745 37.0091 4.54446 36.6188 4.46857C36.2472 4.39562 35.4941 4.08512 34.7824 3.65536C33.9268 3.13885 32.884 2.45871 32.884 2.45871ZM20.2463 9.86628C20.885 7.95007 23.3749 7.31035 23.8973 7.23248C24.4187 7.15362 25.5346 7.10532 26.1211 7.27486C27.0604 7.54593 29.2664 8.95549 29.7159 9.24529C30.1989 9.55578 34.6119 12.7573 35.5473 11.2039C35.5473 11.2039 35.6587 11.9491 35.5848 12.641C35.5109 13.3399 35.5 14.3039 34.5735 15.0274C33.6469 15.7509 33.2595 15.886 31.9259 15.5006C30.5922 15.1152 29.9466 14.71 28.334 13.6553C26.7223 12.6006 24.2058 11.1142 23.5533 10.71C21.6972 9.56071 20.2463 9.86628 20.2463 9.86628ZM26.6474 5.33401C27.1087 3.9491 28.9086 3.4868 29.2852 3.43062C29.6617 3.37345 30.468 3.33895 30.8919 3.46117C31.57 3.65733 32.5508 4.45969 32.8702 4.67556C33.1895 4.89242 36.4078 7.21375 37.0831 6.09201C37.0831 6.09201 37.1639 6.63021 37.1097 7.13095C37.0555 7.63563 37.0052 8.40547 36.3359 8.92888C35.6666 9.45229 35.429 9.47495 34.466 9.19698C33.502 8.91803 33.0348 8.62528 31.8707 7.86333C30.7056 7.10138 29.5079 6.23593 29.0358 5.94219C27.6962 5.11321 26.6474 5.33401 26.6474 5.33401ZM28.6178 25.608C27.1728 25.1329 25.3936 24.0141 24.3566 23.3399C23.4271 22.7356 22.5775 22.1156 20.6889 21.2107C18.9796 20.3926 18.0403 20.1265 16.9245 19.9579C15.8146 19.7884 14.336 19.882 14.336 19.882C14.336 19.882 16.3261 17.9362 20.0245 18.5119C21.8727 18.7997 23.7869 20.1965 26.2571 21.5843C27.8037 22.4527 28.955 22.8894 30.2925 23.1634C30.8376 23.2748 31.6587 23.1654 32.2571 22.7573C33.2418 22.1472 34.9125 19.884 33.8687 16.9476C33.8687 16.9476 32.95 19.1348 29.7839 17.4572C28.0146 16.5198 25.1827 14.7928 23.5415 13.7204C21.9003 12.6489 19.6716 11.5351 18.1655 11.0048C16.4424 10.3986 14.0679 10.0693 12.334 10.6568C10.6169 11.2384 8.84465 11.9363 7.57605 13.5489C5.97132 15.5863 5.56127 17.5548 5.02111 20.5769C4.48094 23.5971 3.68647 29.5094 3.13447 31.5636C2.23255 34.9248 1.67268 36.153 0.741187 38.3285C0.262136 39.4453 0.00289586 40.9002 1.6845 41.0697C3.60071 41.2619 4.79932 40.5749 5.54452 40.3058C6.21775 40.0613 8.74706 39.809 10.6741 39.8711C16.2847 40.0485 20.1152 40.0229 24.5429 37.2186C28.7746 34.5384 30.6464 27.4157 30.9293 26.1964L30.9796 25.883C30.5045 25.9135 29.7445 25.9816 28.6178 25.608ZM97.3065 8.55726C98.3041 8.55726 99.1044 7.46806 99.3341 6.3414L99.966 3.24333C100.184 2.16694 99.6308 1.2946 98.7299 1.2946L94.5485 1.29361C93.6476 1.29361 92.7408 2.16596 92.5209 3.24235L91.8891 6.60853C91.6713 7.68393 92.2243 8.55726 93.1252 8.55726H97.3065ZM97.1813 15.5015L97.5875 13.5193C97.8142 12.4163 97.2425 11.5223 96.309 11.5223L92.2509 11.5213C91.3194 11.5213 90.378 12.4153 90.1503 13.5183L89.8014 15.2137L85.2957 35.8228L84.932 37.5922C84.7053 38.6952 85.278 39.5882 86.2115 39.5902H90.2676C91.3036 39.5902 92.1316 38.7484 92.3701 37.5941L92.7575 35.7055L97.1813 15.5015ZM63.2544 10.5237C63.5906 9.41975 64.7281 8.52572 65.7946 8.5267L72.6551 8.57796C73.6901 8.57796 74.5772 7.73617 74.8946 6.58093L75.9118 3.27192C76.2154 2.16891 75.7058 1.27389 74.7724 1.27389H50.9312C49.9987 1.27389 48.9953 2.16793 48.6907 3.27093L47.6734 6.58093C47.3689 7.68393 47.8795 8.57796 48.8139 8.57796L54.8444 8.54149C55.7779 8.54149 56.2885 9.43651 55.9839 10.5395L48.4837 37.5922C48.1791 38.6952 48.6897 39.5902 49.6232 39.5902H53.6803C54.7153 39.5902 55.6024 38.7484 55.9208 37.5941L63.2544 10.5237ZM173.504 17.4966C174.12 14.1768 172.163 11.4641 169.129 11.4385L152.449 11.4079C151.519 11.4079 150.451 12.4133 150.225 13.4897L144.8 37.7035C144.573 38.7799 145.143 39.6523 146.072 39.6523H150.11C151.14 39.6523 151.964 38.8322 152.2 37.7035L156.251 20.4567C156.476 19.3803 157.412 18.5079 158.341 18.5079L164.294 18.4981C165.225 18.4981 165.799 19.3931 165.572 20.4961L161.654 37.6188C161.428 38.6952 161.999 39.5675 162.927 39.5695H166.964C167.994 39.5695 168.818 38.7474 169.055 37.6207L173.504 17.4966Z" fill="black"/>
<path fill-rule="evenodd" clip-rule="evenodd" d="M69.0503 17.4859C69.4515 15.8309 69.8458 14.0852 71.0976 13.0069C72.3574 11.9206 74.4776 11.5067 75.9985 11.5195L85.8073 11.5234C86.7407 11.5234 87.2621 12.4174 86.9733 13.5204L86.1394 16.6964C85.8358 17.8516 84.9605 18.6934 83.9256 18.6934L78.1208 18.6747C77.0542 18.6747 75.9285 19.5687 75.6072 20.6727L71.2632 37.5952C70.9596 38.7505 70.0833 39.5913 69.0483 39.5913H64.9912C64.0577 39.5893 63.5353 38.6962 63.8251 37.5932L69.0503 17.4859ZM119.017 11.5224L113.268 11.5362C112.201 11.5362 111.547 10.6422 111.739 9.74027L113.216 3.31152C113.441 2.23514 112.871 1.36279 111.943 1.36279H107.906C106.976 1.36279 106.04 2.23514 105.815 3.31054L104.063 11.2464L103.228 11.2652C102.046 11.2868 101.113 12.1474 100.866 13.3075L100.181 16.4963C99.9422 17.6032 100.612 18.4854 101.679 18.4657L102.474 18.4489L99.1458 33.5292C98.5277 36.8481 100.487 39.5607 103.52 39.5863L114.745 39.6041C115.775 39.6041 116.599 38.784 116.835 37.6553L117.486 34.5573C117.711 33.4809 117.141 32.6086 116.211 32.6086L108.54 32.6697C107.473 32.6677 106.818 31.7746 107.011 30.8717L109.372 20.7052C109.633 19.6022 110.707 18.7082 111.774 18.7082L117.334 18.6934C118.516 18.6934 119.463 17.8516 119.735 16.6964L120.482 13.5204C120.738 12.4165 120.083 11.5224 119.017 11.5224ZM142.772 11.1173L129.372 11.1252C126.348 11.0996 123.395 13.7649 122.78 17.0778L121.819 21.6288H121.815L119.316 33.473C118.677 36.5287 120.207 39.1467 122.861 39.2009L136.26 39.193C139.285 39.2177 142.238 36.5533 142.853 33.2404L144.214 26.7969H144.216L144.393 25.9442L145.314 21.5874H145.3L146.266 16.9458C146.907 13.8901 145.424 11.1705 142.772 11.1173ZM136.179 30.0921C135.942 31.2148 135.12 32.0349 134.094 32.0349L128.776 32.0329C127.713 32.0329 127.059 31.1399 127.253 30.2409L127.929 26.8412H127.952L129.209 20.4282C129.443 19.3035 130.265 18.4844 131.293 18.4854L136.858 18.4864C137.92 18.4864 138.573 19.3785 138.381 20.2784L137.031 26.3385L136.179 30.0921Z" fill="black"/>
</svg>
