<svg width="267" height="41" viewBox="0 0 267 41" fill="none" xmlns="http://www.w3.org/2000/svg">
<path fill-rule="evenodd" clip-rule="evenodd" d="M22.8594 11.7024H0V16.7332H20.2114C20.4947 17.2634 26.4632 28.3401 26.4632 28.3401H266.235V23.7243H29.3627L23.179 11.7024H22.8594V11.7024ZM22.5382 12.7734L28.7234 24.7984H124.443V27.2722H27.0889L20.837 15.6668H1.05738V12.7734H22.5382V12.7734ZM11.4373 11.0146L11.9826 0H10.3344L7.92731 11.0146H11.4373V11.0146ZM17.0362 11.0146L14.6306 0H12.9794L13.5293 11.0146H17.0362Z" fill="#295BA7"/>
<path fill-rule="evenodd" clip-rule="evenodd" d="M6.52751 17.4208L1.9314 38.4411H10.0784L11.1206 17.4208H6.52751ZM13.8443 17.4208L14.8911 38.4411H23.032L18.4404 17.4208H13.8443ZM30.5018 32.5968C30.2064 31.9318 29.9216 31.3091 29.2854 31.3091V31.0986H32.2015V31.3091C31.4986 31.3091 31.3789 31.4546 31.3789 31.7197C31.3789 31.953 31.7849 32.8058 31.8834 33.027L33.4846 36.6551L35.0404 32.7089C35.1388 32.4756 35.3039 32.0438 35.3039 31.7863C35.3039 31.3667 34.8207 31.3107 34.5041 31.3107V31.1001H36.7506V31.3107C36.2356 31.3228 36.0159 31.6651 35.8402 32.109C34.9643 34.2606 34.1164 36.4235 33.2967 38.5972H33.1544L30.5018 32.5968V32.5968ZM39.9743 34.8691C39.9743 33.9935 39.8425 33.9284 39.1411 34.1056V33.948L40.9059 33.3618V37.5519C40.9059 38.0397 41.0695 38.2412 41.7391 38.2851V38.4396H39.1411V38.2851C39.8092 38.2412 39.9743 38.0397 39.9743 37.5519V34.8691V34.8691ZM39.8743 31.4424C39.8743 31.1319 40.1273 30.8774 40.4333 30.8774C40.5832 30.8774 40.7269 30.9369 40.8328 31.0429C40.9388 31.1489 40.9983 31.2926 40.9983 31.4424C40.9983 31.5923 40.9388 31.736 40.8328 31.842C40.7269 31.948 40.5832 32.0075 40.4333 32.0075C40.2844 32.0063 40.142 31.9462 40.0372 31.8403C39.9325 31.7344 39.8739 31.5914 39.8743 31.4424V31.4424ZM47.8986 37.5883C47.8986 37.9973 48.1834 38.0533 48.7105 37.6776V37.964C48.5454 38.1624 48.1182 38.5502 47.8107 38.5502C47.2411 38.5502 47.0321 38.1306 47.0215 37.7095C46.517 38.1624 45.9035 38.5502 45.4202 38.5502C44.7734 38.5502 44.2705 38.017 44.2705 37.2777C44.2705 36.0795 46.0353 35.6038 46.9669 35.216C46.9669 34.0495 46.8563 33.6178 46.1656 33.6178C45.9459 33.6178 45.5642 33.7178 45.4536 33.9283C45.3884 34.0617 45.443 34.2828 45.443 34.5707C45.4389 34.6977 45.387 34.8185 45.2977 34.909C45.2084 34.9994 45.0882 35.0528 44.9612 35.0584C44.4568 35.0584 44.325 34.6146 44.5113 34.195C44.8188 33.5057 45.6399 33.3633 46.3307 33.3633C47.5365 33.3633 47.8986 33.8844 47.8986 35.2478V37.5883V37.5883ZM46.9669 35.5144C46.2761 35.8007 45.2339 35.9901 45.2339 36.9884C45.2339 37.4762 45.4748 37.9003 46.0019 37.9003C46.2216 37.9003 46.8548 37.6549 46.9669 37.4125V35.5144ZM57.4998 33.4527H57.2377C56.9196 32.2302 56.1182 31.4 54.87 31.4C53.0612 31.4 52.2826 32.877 52.2826 34.8706C52.2826 36.4233 53.0824 38.0988 54.8806 38.0988C55.9546 38.0988 56.6893 37.7443 57.4468 36.9899L57.6331 37.2111C56.9651 38.0427 55.835 38.5987 54.7836 38.5987C52.6462 38.5987 51.0131 37.2111 51.0131 34.7812C51.0131 32.5771 52.5583 30.9471 54.7609 30.9471C56.2637 30.9471 56.8121 31.856 57.1726 30.9562H57.4029L57.4998 33.4527V33.4527ZM65.0317 35.8007C65.0317 37.2414 64.1001 38.5487 62.5761 38.5487C61.1734 38.5487 60.2084 37.3656 60.2084 36.0219C60.2084 34.5479 61.0628 33.3618 62.5761 33.3618C64.0243 33.3633 65.0317 34.348 65.0317 35.8007V35.8007ZM64.0243 36.3218C64.0243 35.3251 63.6956 33.6951 62.4459 33.6951C61.6339 33.6951 61.2173 34.4616 61.2173 35.4265C61.2067 36.9884 61.7323 38.22 62.7746 38.22C63.629 38.2185 64.0243 37.2868 64.0243 36.3218ZM68.069 34.8373C68.069 33.9935 67.9706 34.0056 67.3783 34.0389V33.8844L69.0007 33.3633V34.248C69.3961 33.8162 69.9005 33.3633 70.6776 33.3633C71.532 33.3633 71.9607 33.9617 71.9607 35.1478V37.5534C71.9607 38.0412 72.1243 38.2427 72.6515 38.2866V38.4411H70.3383V38.2866C70.8655 38.2427 71.0291 38.0412 71.0291 37.5534V35.1721C71.0412 34.5267 70.9746 33.9496 70.1959 33.9496C69.6687 33.9496 69.2749 34.304 69.0007 34.5949V37.5534C69.0007 38.0412 69.1658 38.2427 69.6915 38.2866V38.4411H67.3783V38.2866C67.9039 38.2427 68.069 38.0412 68.069 37.5534V34.8373V34.8373ZM80.2895 38.4396V38.2291C81.0893 38.2291 81.2545 37.8746 81.2545 37.5519V31.9863C81.2545 31.6636 81.0893 31.3091 80.2895 31.3091V31.0986H83.3374V31.3091C82.5375 31.3091 82.3739 31.6636 82.3739 31.9863V37.5519C82.3739 37.8625 82.7905 37.9837 83.4707 37.9837C84.8614 37.9837 85.8369 38.0306 86.4399 36.5097H86.7156L86.1884 38.4381H80.2895V38.4396ZM92.8084 37.5883C92.8084 37.9973 93.0932 38.0533 93.6203 37.6776V37.964C93.4552 38.1624 93.028 38.5502 92.7205 38.5502C92.1509 38.5502 91.9419 38.1306 91.9313 37.7095C91.4268 38.1624 90.8133 38.5502 90.3316 38.5502C89.6847 38.5502 89.1803 38.017 89.1803 37.2777C89.1803 36.0795 90.9451 35.6038 91.8767 35.216C91.8767 34.0495 91.7676 33.6178 91.0769 33.6178C90.8572 33.6178 90.4739 33.7178 90.3649 33.9283C90.2997 34.0617 90.3543 34.2828 90.3543 34.5707C90.3502 34.6977 90.2983 34.8185 90.209 34.909C90.1197 34.9994 89.9995 35.0528 89.8725 35.0584C89.3681 35.0584 89.2378 34.6146 89.4226 34.195C89.7301 33.5057 90.5527 33.3633 91.2435 33.3633C92.4493 33.3633 92.8099 33.8844 92.8099 35.2478V37.5883H92.8084V37.5883ZM91.8767 35.5144C91.1859 35.8007 90.1437 35.9901 90.1437 36.9884C90.1437 37.4762 90.3861 37.9003 90.9102 37.9003C91.1299 37.9003 91.7661 37.6549 91.8752 37.4125V35.5144H91.8767ZM97.2696 36.8218C97.2696 37.6413 97.3787 38.1745 98.0695 37.8988C98.2296 37.8212 98.3688 37.7064 98.4755 37.564L98.6179 37.6852C98.2119 38.2185 97.7302 38.5487 97.203 38.5487C96.4789 38.5487 96.3153 38.0958 96.3365 37.0096V33.8253H96.0078C95.876 33.8253 95.6245 33.8935 95.723 33.6602C96.3365 33.2376 96.7546 32.618 97.2696 32.006V33.4709H98.3543V33.8253H97.2696V36.8218V36.8218ZM103.443 38.2624C103.411 38.3396 103.311 38.5487 103.244 38.5487C103.179 38.5487 103.081 38.3381 103.047 38.2624L101.337 34.2389C101.161 33.8284 100.889 33.6299 100.636 33.6299V33.4724H102.784V33.6299C102.093 33.6299 102.269 34.0617 102.434 34.4737L103.497 37.1217L104.341 34.8585C104.67 33.9738 104.77 33.6299 104.134 33.6299V33.4724H105.657V33.6299C105.241 33.639 105.109 34.1177 104.9 34.6388L103.443 38.2624V38.2624ZM108.999 34.8691C108.999 33.9935 108.867 33.9284 108.166 34.1056V33.948L109.931 33.3618V37.5519C109.931 38.0397 110.096 38.2412 110.764 38.2851V38.4396H108.166V38.2851C108.834 38.2412 108.999 38.0397 108.999 37.5519V34.8691ZM108.901 31.4424C108.901 31.1319 109.152 30.8774 109.46 30.8774C109.61 30.8774 109.753 30.9369 109.859 31.0429C109.965 31.1489 110.025 31.2926 110.025 31.4424C110.025 31.5923 109.965 31.736 109.859 31.842C109.753 31.948 109.61 32.0075 109.46 32.0075C109.311 32.0063 109.168 31.9462 109.064 31.8403C108.959 31.7344 108.9 31.5914 108.901 31.4424V31.4424ZM115.15 38.3078C115.15 39.9818 114.515 40.8468 113.276 40.8468C112.979 40.8468 112.618 40.7498 112.432 40.5483C112.212 40.3059 112.277 39.9272 112.509 39.8182C112.729 39.7061 112.947 39.75 113.068 39.9075C113.2 40.0848 113.332 40.3075 113.648 40.4514C114.11 40.6619 114.218 39.9181 114.218 39.4743V34.6479C114.218 34.0495 114.065 34.0177 113.408 34.1071V33.9496L115.15 33.3633V38.3078V38.3078ZM114.097 31.4424C114.097 31.1319 114.35 30.8774 114.656 30.8774C114.806 30.8774 114.949 30.9369 115.055 31.0429C115.161 31.1489 115.221 31.2926 115.221 31.4424C115.221 31.5923 115.161 31.736 115.055 31.842C114.949 31.948 114.806 32.0075 114.656 32.0075C114.507 32.0059 114.365 31.9457 114.26 31.8399C114.155 31.7341 114.097 31.5913 114.097 31.4424ZM121.891 37.5883C121.891 37.9973 122.176 38.0533 122.703 37.6776V37.964C122.539 38.1624 122.11 38.5502 121.804 38.5502C121.235 38.5502 121.026 38.1306 121.015 37.7095C120.511 38.1624 119.897 38.5502 119.416 38.5502C118.769 38.5502 118.264 38.017 118.264 37.2777C118.264 36.0795 120.029 35.6038 120.961 35.216C120.961 34.0495 120.85 33.6178 120.161 33.6178C119.941 33.6178 119.558 33.7178 119.449 33.9283C119.382 34.0617 119.438 34.2828 119.438 34.5707C119.434 34.6978 119.382 34.8187 119.292 34.9091C119.202 34.9995 119.082 35.0528 118.955 35.0584C118.451 35.0584 118.32 34.6146 118.507 34.195C118.814 33.5057 119.635 33.3633 120.326 33.3633C121.532 33.3633 121.894 33.8844 121.894 35.2478V37.5883H121.891V37.5883ZM120.959 35.5144C120.268 35.8007 119.226 35.9901 119.226 36.9884C119.226 37.4762 119.467 37.9003 119.994 37.9003C120.214 37.9003 120.849 37.6549 120.959 37.4125V35.5144ZM41.0453 4.58989L49.5664 19.9325C50.2375 21.1307 51.4449 21.0565 51.9145 21.0565V21.5807H41.2135V21.0565C42.6223 21.0565 44.8037 20.8323 44.0644 19.5083L42.4875 16.6891H34.8071L33.633 18.9342C32.9635 20.2067 33.7012 21.0565 36.0144 21.0565V21.5807H29.3051V21.0565C30.211 21.0565 31.0487 20.8323 31.7879 19.4583L40.0061 4.58838H41.0453V4.58989V4.58989ZM41.9512 15.7166L38.5306 9.55412L35.31 15.7166H41.9512V15.7166ZM59.763 19.8083C59.763 20.9808 60.6023 21.058 61.2052 21.058V21.5822H53.7581V21.058C54.361 21.058 55.2002 20.9808 55.2002 19.8083V11.8764C55.2002 10.7039 54.3625 10.6282 53.7581 10.6282V10.104H59.7615V12.2506C60.2644 11.6022 61.5051 10.0798 63.3502 9.83134C65.1287 9.58138 67.2404 10.4297 66.6708 12.3248C66.3345 13.3973 64.1879 13.7473 63.0473 12.699C62.4443 12.1248 62.4095 11.6264 61.1688 12.0748C60.1963 12.4233 59.76 13.5958 59.76 14.4199V19.8083H59.763ZM74.8905 19.8083C74.8905 20.9808 75.7282 21.058 76.3326 21.058V21.5822H68.8856V21.058C69.4885 21.058 70.3277 20.9808 70.3277 19.8083V11.575C70.3277 10.9266 69.187 10.8024 68.6174 10.6524V10.1282H74.8905V11.9249C75.3934 11.3507 75.863 10.9508 76.3326 10.6524C77.3718 9.97979 79.6199 9.67984 81.1302 9.9298C83.1768 10.2525 83.5783 10.9523 83.9812 11.8507C84.3842 11.3507 84.8871 10.9766 85.3234 10.6524C87.167 9.32991 93.2068 9.25568 93.2068 13.2231V19.8083C93.2068 20.9808 94.0445 21.058 94.6489 21.058V21.5822H87.2018V21.058C87.8047 21.058 88.644 20.9808 88.644 19.8083V13.0474C88.644 11.2508 86.7655 11.3265 85.9263 11.525C85.0886 11.7249 84.3842 12.2991 84.0494 12.8974V19.8083C84.0494 20.9808 84.8871 21.058 85.4915 21.058V21.5822H78.0444V21.058C78.6474 21.058 79.4866 20.9808 79.4866 19.8083V13.0474C79.4866 11.2508 77.6082 11.3265 76.7704 11.525C75.9312 11.7249 75.2268 12.2991 74.892 12.8974V19.8083H74.8905V19.8083ZM109.943 20.0082C109.943 20.4081 110.647 20.7081 111.587 20.1839L111.855 20.7323C110.513 21.6549 109.039 22.129 107.796 22.0275C106.354 21.9033 105.885 21.0807 105.315 20.4566C104.006 21.2322 102.028 22.3032 99.4117 22.0033C97.2318 21.7549 95.6215 19.9567 96.897 18.1616C97.6014 17.1891 98.9087 16.5892 99.5132 16.315C100.486 15.8923 102.934 15.2682 105.383 14.744V12.6232C105.383 11.8007 105.217 11.1265 104.277 10.8024C103.303 10.4524 101.896 10.5524 101.192 10.8024C100.487 11.0523 100.319 11.3265 100.789 11.9006C101.258 12.5005 101.861 12.8489 101.292 13.6715C100.622 14.6441 98.5073 14.7698 97.6362 13.8957C97.0651 13.3216 96.8303 12.0506 98.2725 11.0523C101.225 9.05572 106.659 9.82981 108.268 10.7281C109.508 11.4265 109.945 12.3248 109.945 13.0474V20.0082H109.943V20.0082ZM105.38 15.5439C104.811 15.6424 102.631 15.8923 101.523 17.5147C100.92 18.3873 101.052 20.0082 102.529 20.2839C103.267 20.4082 104.676 20.0355 105.38 19.2614V15.5439V15.5439ZM123.125 19.3841C122.454 20.3324 121.648 21.5807 118.966 22.0033C116.752 22.3517 114.739 21.1307 114.739 20.0067V11.2765H113.129V10.5782C114.336 9.72983 115.946 8.55733 118.563 5.93813H119.3V10.104H122.353V11.2765H119.3V19.3599C119.3 20.8823 120.576 20.6308 121.245 20.2324C121.648 19.984 122.118 19.6356 122.453 19.1099L123.125 19.3841Z" fill="#295BA7"/>
</svg>
