<svg width="202" height="58" viewBox="0 0 202 58" fill="none" xmlns="http://www.w3.org/2000/svg">
<path fill-rule="evenodd" clip-rule="evenodd" d="M28.7438 26.481H173.938V57.6713H28.7438V26.481Z" fill="#B4C0DA"/>
<path fill-rule="evenodd" clip-rule="evenodd" d="M24.1117 22.8033C24.1117 20.0792 22.8863 17.8993 20.7063 16.5378C19.3449 15.7205 18.3903 15.5844 15.9395 15.4484C18.1182 14.223 18.9368 13.6777 19.7529 12.7243C20.362 12.1175 20.8442 11.3955 21.1716 10.6005C21.4989 9.80545 21.6649 8.95325 21.6597 8.09349C21.6597 5.91351 20.8423 4.00676 19.3437 2.78134C17.9822 1.69194 16.2115 1.14665 13.3502 1.14665C12.2608 1.14665 10.8994 1.14665 9.26467 1.28268L5.04192 1.4187L1.36447 1.28268L0.409912 3.18942H0.955203C2.31665 3.18942 2.99797 3.5975 3.13518 4.55087C3.40724 5.50424 3.54326 7.13893 3.54326 9.31773L3.40724 24.3008C3.40724 28.5235 3.40724 28.9316 3.13518 30.8395C3.13518 31.3825 2.99797 32.0638 2.86313 32.8823H10.8994C13.3502 32.8823 14.9849 32.7463 16.3475 32.337C18.5263 31.7917 20.7063 30.4315 22.0678 28.7956C23.4304 27.1621 24.1117 25.1181 24.1117 22.8033ZM19.6169 23.7567C19.6169 27.9783 16.6208 30.5675 12.262 30.5675C10.3553 30.5675 9.26585 30.2954 8.58454 29.6129C8.04043 29.0677 7.9044 28.3863 7.76719 26.7528V9.45493L7.9044 3.5975C9.53791 3.46147 10.3553 3.32544 11.1726 3.32544C14.8501 3.32544 17.1661 5.50424 17.1661 8.90965C17.1661 11.3617 15.9395 13.5405 13.7607 14.3578C12.534 14.7671 11.8539 14.9031 9.67394 14.9031L9.40188 15.9925L9.12983 17.354C10.6285 17.2179 11.3086 17.2179 12.126 17.2179C16.8928 17.2179 19.6169 19.5339 19.6169 23.7567ZM53.9406 28.2515L53.3953 27.9794C52.442 28.7968 52.0339 29.206 51.2166 29.4781C50.5352 29.7501 49.9899 30.0234 49.3098 30.0234C48.0832 30.2954 46.8578 30.4326 45.0871 30.4326C42.499 30.4326 41.4096 30.1606 40.7283 29.4781C40.1842 28.7968 40.0481 28.1166 39.9109 26.4808C39.9109 25.6634 39.7749 24.9821 39.7749 24.438V17.6284C41.6817 17.4924 42.363 17.4924 43.5884 17.4924C45.0871 17.4924 46.4485 17.4924 48.0832 17.6284C48.4925 17.6284 49.1726 17.6284 50.1272 17.7644L49.9899 16.811V15.4472L50.1272 14.4938C47.9484 14.6299 47.1298 14.7659 45.2231 14.7659H39.9109V9.31773L40.0482 3.86956C41.4096 3.73353 42.6362 3.73353 43.3163 3.73353C45.0871 3.73353 46.5857 3.86955 47.8111 4.27763C48.9005 4.54969 49.3098 4.82293 50.1272 5.7763L50.6713 5.64027L50.9433 4.55087L51.4874 2.64413L52.1687 1.14547C49.0366 1.2815 48.6273 1.2815 43.4512 1.2815H33.5106L32.556 3.18824H33.1013C34.3267 3.18824 35.0081 3.59632 35.2801 4.54969C35.5522 5.50306 35.5522 7.13775 35.5522 9.31654V24.2996C35.5522 28.5224 35.5522 28.9304 35.2801 30.8384C35.1441 31.3813 35.1441 32.0626 35.0081 32.8811H45.4951C49.0366 33.0172 50.8073 33.0172 51.0793 33.0172C51.3514 33.0172 52.0327 33.0172 52.8501 33.1532L53.1221 31.5173L53.5302 29.7478L53.9406 28.2515ZM82.6802 28.2515L81.9989 27.9794C81.1815 28.7968 80.7722 29.206 79.8201 29.4781C79.2748 29.7501 78.5934 30.0234 78.0493 30.0234C76.6879 30.2954 75.4613 30.4326 73.8266 30.4326C71.1025 30.4326 70.0131 30.1606 69.3318 29.4781C68.7877 28.7968 68.6505 28.2515 68.5144 26.4808C68.5144 25.6634 68.3784 24.9821 68.3784 24.438L68.5144 9.45493V4.55087C68.6505 3.86956 68.6505 2.78016 68.7865 1.2815H62.1117L61.1583 3.18824H61.7024C62.9279 3.18824 63.6092 3.59632 63.8824 4.54969C64.1545 5.50306 64.1545 7.13775 64.1545 9.31654V24.2996C64.1545 28.5224 64.1545 28.9304 63.8824 30.8384C63.7464 31.3813 63.7464 32.0626 63.6104 32.8811H74.0986C77.6401 33.0172 79.5468 33.0172 79.6828 33.0172C80.0909 33.0172 80.6362 33.0172 81.4536 33.1532L81.7256 31.5173L82.1337 29.7478L82.6802 28.2515ZM120.819 15.7205C120.819 10.0002 118.368 5.09617 114.144 2.91737C112.101 1.82797 109.784 1.4187 106.109 1.28268H89.9002L89.0829 3.18942H89.4922C90.8536 3.18942 91.5349 3.5975 91.671 4.55087C91.943 5.50424 92.0802 7.13893 92.0802 9.31773L91.9418 24.3008C91.9418 28.5235 91.9418 28.9316 91.6698 30.8395C91.6698 31.3825 91.5337 32.0638 91.3977 32.8823H96.0297C98.7538 32.8823 100.661 33.0183 101.75 33.0183C107.47 33.0183 111.421 31.7917 114.689 29.2037C118.64 26.0715 120.819 21.1686 120.819 15.7205ZM116.051 16.8099C116.051 25.2542 111.012 30.2943 102.705 30.2943C100.933 30.2943 99.2979 30.1582 98.3446 29.885C97.9353 29.749 97.5272 29.6129 97.1179 29.2037C96.5738 28.6584 96.4366 27.9771 96.3006 26.3436V9.45493L96.4366 4.00677C99.2967 3.87074 100.797 3.73471 102.295 3.73471C107.742 3.73471 110.602 4.68808 112.781 7.27614C114.825 9.59097 116.051 12.9964 116.051 16.8099ZM155.686 32.8823C155.277 32.065 155.005 31.7917 154.596 30.9744C153.508 28.7956 152.553 26.6168 152.008 24.9821L144.518 4.96014C143.701 2.91618 143.563 2.23605 143.018 0.328125L142.064 0.464149L140.021 0.872232L139.066 1.00826C138.521 3.18823 138.251 4.0044 137.161 6.59246L129.669 25.253C129.397 25.9343 128.987 26.8877 128.444 27.9771C127.899 29.2037 127.49 30.021 127.082 30.5663C126.946 31.1116 126.536 31.7906 125.991 32.6091L126.263 32.8811H131.982C131.711 31.9266 131.711 31.5185 131.711 30.8384C131.711 29.4757 132.118 27.569 132.936 25.253L134.571 21.0314H145.875L147.511 25.5262C148.326 28.2503 148.871 29.6129 149.144 31.1116C149.144 31.5185 149.28 32.0638 149.416 33.0172L151.459 32.8811H155.686V32.8823ZM144.926 18.4445H135.527L140.431 5.3694L144.926 18.4445ZM201.589 32.8823C201.18 32.065 201.18 31.7917 200.908 30.8395C200.362 28.9316 200.09 27.1609 199.953 24.4368L198.729 8.6376L198.457 4.68808V2.78134V1.28268H192.601C191.51 4.41485 191.101 5.64145 190.147 7.82025L183.2 23.7567L181.976 27.2981L180.614 23.6207L174.076 7.95746C173.259 6.05071 172.716 4.82529 171.488 1.28268H163.454L162.637 3.32663H163.182C165.088 3.32663 165.633 3.87074 165.633 6.18675C165.633 6.86807 165.497 8.50275 165.361 9.59215L164.134 23.2126C163.998 24.1671 163.725 25.6646 163.591 27.5725C163.319 29.07 163.182 30.2966 163.046 30.9756C162.91 31.5209 162.774 32.0662 162.501 32.8835H167.538C167.266 32.0662 167.266 31.7929 167.129 30.7047C167.129 29.7502 166.996 28.7968 166.996 27.8434C167.129 26.3447 167.129 24.7112 167.266 23.0766L168.357 10.4095L168.766 6.05071L169.721 8.91083L178.028 28.1166C179.255 30.9756 179.528 31.6569 179.936 33.4288L180.751 33.2928H182.113L183.202 33.4288C183.474 32.0662 183.474 31.6569 184.019 30.1594C184.428 28.9328 184.7 28.1155 184.974 27.4341L192.873 8.50156L194.235 5.09616L194.507 9.72817L195.868 25.2553V29.7502C196.006 30.7047 196.006 31.3837 195.868 32.8823H201.589Z" fill="#C4C6CB"/>
</svg>
